<svg width="128" height="128" viewBox="0 0 128 128" fill="none" xmlns="http://www.w3.org/2000/svg">
<circle cx="2.69565" cy="2.69565" r="2.69565" fill="#4318FF"/>
<circle cx="2.69565" cy="20.0869" r="2.69565" fill="#4318FF"/>
<circle cx="2.69565" cy="37.4782" r="2.69565" fill="#4318FF"/>
<circle cx="2.69565" cy="54.8695" r="2.69565" fill="#4318FF"/>
<circle cx="2.69565" cy="72.2608" r="2.69565" fill="#4318FF"/>
<circle cx="2.69565" cy="89.6521" r="2.69565" fill="#4318FF"/>
<circle cx="2.69565" cy="107.043" r="2.69565" fill="#4318FF"/>
<circle cx="2.69565" cy="124.435" r="2.69565" fill="#4318FF"/>
<circle cx="20.0868" cy="2.69565" r="2.69565" fill="#4318FF"/>
<circle cx="20.0868" cy="20.0869" r="2.69565" fill="#4318FF"/>
<circle cx="20.0868" cy="37.4782" r="2.69565" fill="#4318FF"/>
<circle cx="20.0868" cy="54.8695" r="2.69565" fill="#4318FF"/>
<circle cx="20.0868" cy="72.2608" r="2.69565" fill="#4318FF"/>
<circle cx="20.0868" cy="89.6521" r="2.69565" fill="#4318FF"/>
<circle cx="20.0868" cy="107.043" r="2.69565" fill="#4318FF"/>
<circle cx="20.0868" cy="124.435" r="2.69565" fill="#4318FF"/>
<circle cx="37.4779" cy="2.69565" r="2.69565" fill="#4318FF"/>
<circle cx="37.4779" cy="20.0869" r="2.69565" fill="#4318FF"/>
<circle cx="37.4779" cy="37.4782" r="2.69565" fill="#4318FF"/>
<circle cx="37.4779" cy="54.8695" r="2.69565" fill="#4318FF"/>
<circle cx="37.4779" cy="72.2608" r="2.69565" fill="#4318FF"/>
<circle cx="37.4779" cy="89.6521" r="2.69565" fill="#4318FF"/>
<circle cx="37.4779" cy="107.043" r="2.69565" fill="#4318FF"/>
<circle cx="37.4779" cy="124.435" r="2.69565" fill="#4318FF"/>
<circle cx="54.869" cy="2.69565" r="2.69565" fill="#4318FF"/>
<circle cx="54.869" cy="20.0869" r="2.69565" fill="#4318FF"/>
<circle cx="54.869" cy="37.4782" r="2.69565" fill="#4318FF"/>
<circle cx="54.869" cy="54.8695" r="2.69565" fill="#4318FF"/>
<circle cx="54.869" cy="72.2608" r="2.69565" fill="#4318FF"/>
<circle cx="54.869" cy="89.6521" r="2.69565" fill="#4318FF"/>
<circle cx="54.869" cy="107.043" r="2.69565" fill="#4318FF"/>
<circle cx="54.869" cy="124.435" r="2.69565" fill="#4318FF"/>
<circle cx="72.2601" cy="2.69565" r="2.69565" fill="#4318FF"/>
<circle cx="72.2601" cy="20.0869" r="2.69565" fill="#4318FF"/>
<circle cx="72.2601" cy="37.4782" r="2.69565" fill="#4318FF"/>
<circle cx="72.2601" cy="54.8695" r="2.69565" fill="#4318FF"/>
<circle cx="72.2601" cy="72.2608" r="2.69565" fill="#4318FF"/>
<circle cx="72.2601" cy="89.6521" r="2.69565" fill="#4318FF"/>
<circle cx="72.2601" cy="107.043" r="2.69565" fill="#4318FF"/>
<circle cx="72.2601" cy="124.435" r="2.69565" fill="#4318FF"/>
<circle cx="89.6512" cy="2.69565" r="2.69565" fill="#4318FF"/>
<circle cx="89.6512" cy="20.0869" r="2.69565" fill="#4318FF"/>
<circle cx="89.6512" cy="37.4782" r="2.69565" fill="#4318FF"/>
<circle cx="89.6512" cy="54.8695" r="2.69565" fill="#4318FF"/>
<circle cx="89.6512" cy="72.2608" r="2.69565" fill="#4318FF"/>
<circle cx="89.6512" cy="89.6521" r="2.69565" fill="#4318FF"/>
<circle cx="89.6512" cy="107.043" r="2.69565" fill="#4318FF"/>
<circle cx="89.6512" cy="124.435" r="2.69565" fill="#4318FF"/>
<circle cx="107.042" cy="2.69565" r="2.69565" fill="#4318FF"/>
<circle cx="107.042" cy="20.0869" r="2.69565" fill="#4318FF"/>
<circle cx="107.042" cy="37.4782" r="2.69565" fill="#4318FF"/>
<circle cx="107.042" cy="54.8695" r="2.69565" fill="#4318FF"/>
<circle cx="107.042" cy="72.2608" r="2.69565" fill="#4318FF"/>
<circle cx="107.042" cy="89.6521" r="2.69565" fill="#4318FF"/>
<circle cx="107.042" cy="107.043" r="2.69565" fill="#4318FF"/>
<circle cx="107.042" cy="124.435" r="2.69565" fill="#4318FF"/>
<circle cx="124.433" cy="2.69565" r="2.69565" fill="#4318FF"/>
<circle cx="124.433" cy="20.0869" r="2.69565" fill="#4318FF"/>
<circle cx="124.433" cy="37.4782" r="2.69565" fill="#4318FF"/>
<circle cx="124.433" cy="54.8695" r="2.69565" fill="#4318FF"/>
<circle cx="124.433" cy="72.2608" r="2.69565" fill="#4318FF"/>
<circle cx="124.433" cy="89.6521" r="2.69565" fill="#4318FF"/>
<circle cx="124.433" cy="107.043" r="2.69565" fill="#4318FF"/>
<circle cx="124.433" cy="124.435" r="2.69565" fill="#4318FF"/>
</svg>
