<svg width="266" height="128" viewBox="0 0 266 128" fill="none" xmlns="http://www.w3.org/2000/svg">
<circle cx="2.69565" cy="2.69565" r="2.69565" fill="#4318FF"/>
<circle cx="2.69565" cy="20.0869" r="2.69565" fill="#4318FF"/>
<circle cx="2.69565" cy="37.4782" r="2.69565" fill="#4318FF"/>
<circle cx="2.69565" cy="54.8695" r="2.69565" fill="#4318FF"/>
<circle cx="2.69565" cy="72.2608" r="2.69565" fill="#4318FF"/>
<circle cx="2.69565" cy="89.6521" r="2.69565" fill="#4318FF"/>
<circle cx="2.69565" cy="107.043" r="2.69565" fill="#4318FF"/>
<circle cx="2.69565" cy="124.435" r="2.69565" fill="#4318FF"/>
<circle cx="20.0868" cy="2.69565" r="2.69565" fill="#4318FF"/>
<circle cx="20.0868" cy="20.0869" r="2.69565" fill="#4318FF"/>
<circle cx="20.0868" cy="37.4782" r="2.69565" fill="#4318FF"/>
<circle cx="20.0868" cy="54.8695" r="2.69565" fill="#4318FF"/>
<circle cx="20.0868" cy="72.2608" r="2.69565" fill="#4318FF"/>
<circle cx="20.0868" cy="89.6521" r="2.69565" fill="#4318FF"/>
<circle cx="20.0868" cy="107.043" r="2.69565" fill="#4318FF"/>
<circle cx="20.0868" cy="124.435" r="2.69565" fill="#4318FF"/>
<circle cx="37.4779" cy="2.69565" r="2.69565" fill="#4318FF"/>
<circle cx="37.4779" cy="20.0869" r="2.69565" fill="#4318FF"/>
<circle cx="37.4779" cy="37.4782" r="2.69565" fill="#4318FF"/>
<circle cx="37.4779" cy="54.8695" r="2.69565" fill="#4318FF"/>
<circle cx="37.4779" cy="72.2608" r="2.69565" fill="#4318FF"/>
<circle cx="37.4779" cy="89.6521" r="2.69565" fill="#4318FF"/>
<circle cx="37.4779" cy="107.043" r="2.69565" fill="#4318FF"/>
<circle cx="37.4779" cy="124.435" r="2.69565" fill="#4318FF"/>
<circle cx="54.869" cy="2.69565" r="2.69565" fill="#4318FF"/>
<circle cx="54.869" cy="20.0869" r="2.69565" fill="#4318FF"/>
<circle cx="54.869" cy="37.4782" r="2.69565" fill="#4318FF"/>
<circle cx="54.869" cy="54.8695" r="2.69565" fill="#4318FF"/>
<circle cx="54.869" cy="72.2608" r="2.69565" fill="#4318FF"/>
<circle cx="54.869" cy="89.6521" r="2.69565" fill="#4318FF"/>
<circle cx="54.869" cy="107.043" r="2.69565" fill="#4318FF"/>
<circle cx="54.869" cy="124.435" r="2.69565" fill="#4318FF"/>
<circle cx="72.2601" cy="2.69565" r="2.69565" fill="#4318FF"/>
<circle cx="72.2601" cy="20.0869" r="2.69565" fill="#4318FF"/>
<circle cx="72.2601" cy="37.4782" r="2.69565" fill="#4318FF"/>
<circle cx="72.2601" cy="54.8695" r="2.69565" fill="#4318FF"/>
<circle cx="72.2601" cy="72.2608" r="2.69565" fill="#4318FF"/>
<circle cx="72.2601" cy="89.6521" r="2.69565" fill="#4318FF"/>
<circle cx="72.2601" cy="107.043" r="2.69565" fill="#4318FF"/>
<circle cx="72.2601" cy="124.435" r="2.69565" fill="#4318FF"/>
<circle cx="89.6512" cy="2.69565" r="2.69565" fill="#4318FF"/>
<circle cx="89.6512" cy="20.0869" r="2.69565" fill="#4318FF"/>
<circle cx="89.6512" cy="37.4782" r="2.69565" fill="#4318FF"/>
<circle cx="89.6512" cy="54.8695" r="2.69565" fill="#4318FF"/>
<circle cx="89.6512" cy="72.2608" r="2.69565" fill="#4318FF"/>
<circle cx="89.6512" cy="89.6521" r="2.69565" fill="#4318FF"/>
<circle cx="89.6512" cy="107.043" r="2.69565" fill="#4318FF"/>
<circle cx="89.6512" cy="124.435" r="2.69565" fill="#4318FF"/>
<circle cx="107.042" cy="2.69565" r="2.69565" fill="#4318FF"/>
<circle cx="107.042" cy="20.0869" r="2.69565" fill="#4318FF"/>
<circle cx="107.042" cy="37.4782" r="2.69565" fill="#4318FF"/>
<circle cx="107.042" cy="54.8695" r="2.69565" fill="#4318FF"/>
<circle cx="107.042" cy="72.2608" r="2.69565" fill="#4318FF"/>
<circle cx="107.042" cy="89.6521" r="2.69565" fill="#4318FF"/>
<circle cx="107.042" cy="107.043" r="2.69565" fill="#4318FF"/>
<circle cx="107.042" cy="124.435" r="2.69565" fill="#4318FF"/>
<circle cx="124.433" cy="2.69565" r="2.69565" fill="#4318FF"/>
<circle cx="124.433" cy="20.0869" r="2.69565" fill="#4318FF"/>
<circle cx="124.433" cy="37.4782" r="2.69565" fill="#4318FF"/>
<circle cx="124.433" cy="54.8695" r="2.69565" fill="#4318FF"/>
<circle cx="124.433" cy="72.2608" r="2.69565" fill="#4318FF"/>
<circle cx="124.433" cy="89.6521" r="2.69565" fill="#4318FF"/>
<circle cx="124.433" cy="107.043" r="2.69565" fill="#4318FF"/>
<circle cx="124.433" cy="124.435" r="2.69565" fill="#4318FF"/>
<circle cx="140.696" cy="2.69565" r="2.69565" fill="#4318FF"/>
<circle cx="140.696" cy="20.0869" r="2.69565" fill="#4318FF"/>
<circle cx="140.696" cy="37.4782" r="2.69565" fill="#4318FF"/>
<circle cx="140.696" cy="54.8695" r="2.69565" fill="#4318FF"/>
<circle cx="140.696" cy="72.2608" r="2.69565" fill="#4318FF"/>
<circle cx="140.696" cy="89.6521" r="2.69565" fill="#4318FF"/>
<circle cx="140.696" cy="107.043" r="2.69565" fill="#4318FF"/>
<circle cx="140.696" cy="124.435" r="2.69565" fill="#4318FF"/>
<circle cx="158.087" cy="2.69565" r="2.69565" fill="#4318FF"/>
<circle cx="158.087" cy="20.0869" r="2.69565" fill="#4318FF"/>
<circle cx="158.087" cy="37.4782" r="2.69565" fill="#4318FF"/>
<circle cx="158.087" cy="54.8695" r="2.69565" fill="#4318FF"/>
<circle cx="158.087" cy="72.2608" r="2.69565" fill="#4318FF"/>
<circle cx="158.087" cy="89.6521" r="2.69565" fill="#4318FF"/>
<circle cx="158.087" cy="107.043" r="2.69565" fill="#4318FF"/>
<circle cx="158.087" cy="124.435" r="2.69565" fill="#4318FF"/>
<circle cx="175.478" cy="2.69565" r="2.69565" fill="#4318FF"/>
<circle cx="175.478" cy="20.0869" r="2.69565" fill="#4318FF"/>
<circle cx="175.478" cy="37.4782" r="2.69565" fill="#4318FF"/>
<circle cx="175.478" cy="54.8695" r="2.69565" fill="#4318FF"/>
<circle cx="175.478" cy="72.2608" r="2.69565" fill="#4318FF"/>
<circle cx="175.478" cy="89.6521" r="2.69565" fill="#4318FF"/>
<circle cx="175.478" cy="107.043" r="2.69565" fill="#4318FF"/>
<circle cx="175.478" cy="124.435" r="2.69565" fill="#4318FF"/>
<circle cx="192.869" cy="2.69565" r="2.69565" fill="#4318FF"/>
<circle cx="192.869" cy="20.0869" r="2.69565" fill="#4318FF"/>
<circle cx="192.869" cy="37.4782" r="2.69565" fill="#4318FF"/>
<circle cx="192.869" cy="54.8695" r="2.69565" fill="#4318FF"/>
<circle cx="192.869" cy="72.2608" r="2.69565" fill="#4318FF"/>
<circle cx="192.869" cy="89.6521" r="2.69565" fill="#4318FF"/>
<circle cx="192.869" cy="107.043" r="2.69565" fill="#4318FF"/>
<circle cx="192.869" cy="124.435" r="2.69565" fill="#4318FF"/>
<circle cx="210.26" cy="2.69565" r="2.69565" fill="#4318FF"/>
<circle cx="210.26" cy="20.0869" r="2.69565" fill="#4318FF"/>
<circle cx="210.26" cy="37.4782" r="2.69565" fill="#4318FF"/>
<circle cx="210.26" cy="54.8695" r="2.69565" fill="#4318FF"/>
<circle cx="210.26" cy="72.2608" r="2.69565" fill="#4318FF"/>
<circle cx="210.26" cy="89.6521" r="2.69565" fill="#4318FF"/>
<circle cx="210.26" cy="107.043" r="2.69565" fill="#4318FF"/>
<circle cx="210.26" cy="124.435" r="2.69565" fill="#4318FF"/>
<circle cx="227.651" cy="2.69565" r="2.69565" fill="#4318FF"/>
<circle cx="227.651" cy="20.0869" r="2.69565" fill="#4318FF"/>
<circle cx="227.651" cy="37.4782" r="2.69565" fill="#4318FF"/>
<circle cx="227.651" cy="54.8695" r="2.69565" fill="#4318FF"/>
<circle cx="227.651" cy="72.2608" r="2.69565" fill="#4318FF"/>
<circle cx="227.651" cy="89.6521" r="2.69565" fill="#4318FF"/>
<circle cx="227.651" cy="107.043" r="2.69565" fill="#4318FF"/>
<circle cx="227.651" cy="124.435" r="2.69565" fill="#4318FF"/>
<circle cx="245.042" cy="2.69565" r="2.69565" fill="#4318FF"/>
<circle cx="245.042" cy="20.0869" r="2.69565" fill="#4318FF"/>
<circle cx="245.042" cy="37.4782" r="2.69565" fill="#4318FF"/>
<circle cx="245.042" cy="54.8695" r="2.69565" fill="#4318FF"/>
<circle cx="245.042" cy="72.2608" r="2.69565" fill="#4318FF"/>
<circle cx="245.042" cy="89.6521" r="2.69565" fill="#4318FF"/>
<circle cx="245.042" cy="107.043" r="2.69565" fill="#4318FF"/>
<circle cx="245.042" cy="124.435" r="2.69565" fill="#4318FF"/>
<circle cx="262.433" cy="2.69565" r="2.69565" fill="#4318FF"/>
<circle cx="262.433" cy="20.0869" r="2.69565" fill="#4318FF"/>
<circle cx="262.433" cy="37.4782" r="2.69565" fill="#4318FF"/>
<circle cx="262.433" cy="54.8695" r="2.69565" fill="#4318FF"/>
<circle cx="262.433" cy="72.2608" r="2.69565" fill="#4318FF"/>
<circle cx="262.433" cy="89.6521" r="2.69565" fill="#4318FF"/>
<circle cx="262.433" cy="107.043" r="2.69565" fill="#4318FF"/>
<circle cx="262.433" cy="124.435" r="2.69565" fill="#4318FF"/>
</svg>
